<svg xmlns="http://www.w3.org/2000/svg" width="1180" height="440" viewBox="0 0 1180 440" role="img" aria-label="doc2mcp architecture: write path from user to pipeline to database, and read path from AI clients through the MCP endpoint" font-family="ui-sans-serif, system-ui, -apple-system, Segoe UI, Roboto, sans-serif">
  <defs>
    <linearGradient id="a2" x1="0" y1="0" x2="1" y2="1">
      <stop offset="0" stop-color="#8b5cf6"/>
      <stop offset="1" stop-color="#22d3ee"/>
    </linearGradient>
    <marker id="ar" markerWidth="9" markerHeight="9" refX="6" refY="3" orient="auto"><path d="M0,0 L6,3 L0,6 Z" fill="#6366f1"/></marker>
    <marker id="arc" markerWidth="9" markerHeight="9" refX="6" refY="3" orient="auto"><path d="M0,0 L6,3 L0,6 Z" fill="#22d3ee"/></marker>
  </defs>
  <rect x="0.5" y="0.5" width="1179" height="439" rx="18" fill="#0a0a0f" stroke="#1d1d28"/>
  <text x="32" y="40" fill="#e5e7eb" font-size="16" font-weight="600">System architecture</text>

  <text x="32" y="74" fill="#a78bfa" font-size="11" font-weight="600" letter-spacing="0.08em">WRITE PATH  CONVERSION</text>
  <text x="32" y="320" fill="#22d3ee" font-size="11" font-weight="600" letter-spacing="0.08em">READ PATH  AGENT QUERIES</text>

  <!-- write row -->
  <g>
    <rect x="32" y="90" width="150" height="64" rx="12" fill="#13131b" stroke="#2a2a38"/>
    <text x="107" y="120" fill="#f3f4f6" font-size="13" font-weight="600" text-anchor="middle">Developer</text>
    <text x="107" y="138" fill="#8b8b9a" font-size="11" text-anchor="middle">paste docs URL</text>

    <rect x="222" y="90" width="160" height="64" rx="12" fill="#13131b" stroke="#2a2a38"/>
    <text x="302" y="120" fill="#f3f4f6" font-size="13" font-weight="600" text-anchor="middle">doc2mcp app</text>
    <text x="302" y="138" fill="#8b8b9a" font-size="11" text-anchor="middle">/chat</text>

    <rect x="422" y="90" width="170" height="64" rx="12" fill="#13131b" stroke="#2a2a38"/>
    <text x="507" y="120" fill="#f3f4f6" font-size="13" font-weight="600" text-anchor="middle">POST /api/convert</text>
    <text x="507" y="138" fill="#8b8b9a" font-size="11" text-anchor="middle">create project + token</text>

    <rect x="632" y="90" width="180" height="64" rx="12" fill="#13131b" stroke="#2a2a38"/>
    <text x="722" y="120" fill="#f3f4f6" font-size="13" font-weight="600" text-anchor="middle">Background pipeline</text>
    <text x="722" y="138" fill="#8b8b9a" font-size="11" text-anchor="middle">crawl · chunk · analyze</text>
  </g>

  <!-- database -->
  <g>
    <rect x="900" y="150" width="240" height="140" rx="14" fill="#120f1d" stroke="url(#a2)"/>
    <text x="1020" y="210" fill="#f3f4f6" font-size="14" font-weight="700" text-anchor="middle">Supabase Postgres</text>
    <text x="1020" y="232" fill="#8b8b9a" font-size="11" text-anchor="middle">projects · pages · chunks</text>
    <text x="1020" y="250" fill="#8b8b9a" font-size="11" text-anchor="middle">hashed tokens</text>
  </g>

  <!-- read row -->
  <g>
    <rect x="32" y="336" width="300" height="64" rx="12" fill="#13131b" stroke="#2a2a38"/>
    <text x="182" y="366" fill="#f3f4f6" font-size="13" font-weight="600" text-anchor="middle">AI clients</text>
    <text x="182" y="384" fill="#8b8b9a" font-size="11" text-anchor="middle">Cursor · Claude · VS Code · Windsurf · OpenAI</text>

    <rect x="632" y="336" width="180" height="64" rx="12" fill="#13131b" stroke="#2a2a38"/>
    <text x="722" y="366" fill="#f3f4f6" font-size="13" font-weight="600" text-anchor="middle">GET/POST /api/mcp</text>
    <text x="722" y="384" fill="#8b8b9a" font-size="11" text-anchor="middle">JSON-RPC 2.0 · Bearer</text>
  </g>

  <!-- write arrows -->
  <line x1="182" y1="122" x2="220" y2="122" stroke="#6366f1" stroke-width="2" marker-end="url(#ar)"/>
  <line x1="382" y1="122" x2="420" y2="122" stroke="#6366f1" stroke-width="2" marker-end="url(#ar)"/>
  <line x1="592" y1="122" x2="630" y2="122" stroke="#6366f1" stroke-width="2" marker-end="url(#ar)"/>
  <path d="M812,122 C870,122 900,150 916,176" fill="none" stroke="#6366f1" stroke-width="2" marker-end="url(#ar)"/>

  <!-- read arrows -->
  <path d="M916,250 C880,300 840,322 814,344" fill="none" stroke="#22d3ee" stroke-width="2" marker-end="url(#arc)"/>
  <line x1="630" y1="368" x2="334" y2="368" stroke="#22d3ee" stroke-width="2" marker-end="url(#arc)"/>
  <!-- token handoff -->
  <path d="M107,154 C107,250 140,300 180,334" fill="none" stroke="#3f3f4a" stroke-width="1.5" stroke-dasharray="4 4" marker-end="url(#ar)"/>
  <text x="70" y="250" fill="#6b6b7a" font-size="10">copy URL + token</text>
</svg>
